<svg width="36" height="36" viewBox="0 0 36 36" fill="none" xmlns="http://www.w3.org/2000/svg">
<circle cx="18" cy="18" r="18" fill="white"/>
<path d="M20.5625 18L23.6875 14.875C24.0938 14.5 24.0938 13.875 23.6875 13.5L23 12.8125C22.625 12.4062 22 12.4062 21.625 12.8125L18.5 15.9375L15.3438 12.8125C14.9688 12.4062 14.3438 12.4062 13.9688 12.8125L13.2812 13.5C12.875 13.875 12.875 14.5 13.2812 14.875L16.4062 18L13.2812 21.1562C12.875 21.5312 12.875 22.1562 13.2812 22.5312L13.9688 23.2188C14.3438 23.625 14.9688 23.625 15.3438 23.2188L18.5 20.0938L21.625 23.2188C22 23.625 22.625 23.625 23 23.2188L23.6875 22.5312C24.0938 22.1562 24.0938 21.5312 23.6875 21.1562L20.5625 18Z" fill="#222222"/>
</svg>
