<svg width="40" height="40" viewBox="0 0 40 40" fill="none" xmlns="http://www.w3.org/2000/svg">
<path d="M40 40L10 40C4.47715 40 0 35.5228 0 30L0 10C0 4.47715 4.47715 0 10 0L40 0L40 40Z" fill="#C00000"/>
<path d="M23.9062 20.5312C24.1875 20.25 24.1875 19.7812 23.9062 19.5L17.8438 13.4062C17.5312 13.125 17.0625 13.125 16.7812 13.4062L16.0625 14.125C15.7812 14.4062 15.7812 14.875 16.0625 15.1875L20.875 20L16.0625 24.8438C15.7812 25.1562 15.7812 25.625 16.0625 25.9062L16.7812 26.625C17.0625 26.9062 17.5312 26.9062 17.8438 26.625L23.9062 20.5312Z" fill="white"/>
</svg>
