<svg width="40" height="40" viewBox="0 0 40 40" fill="none" xmlns="http://www.w3.org/2000/svg">
<path d="M0 0H30C35.5228 0 40 4.47715 40 10V30C40 35.5228 35.5228 40 30 40H0V0Z" fill="#C00000"/>
<path d="M16.0938 19.4688C15.8125 19.75 15.8125 20.2188 16.0938 20.5L22.1562 26.5938C22.4688 26.875 22.9375 26.875 23.2188 26.5938L23.9375 25.875C24.2188 25.5938 24.2188 25.125 23.9375 24.8125L19.125 20L23.9375 15.1562C24.2188 14.8438 24.2188 14.375 23.9375 14.0938L23.2188 13.375C22.9375 13.0938 22.4688 13.0938 22.1562 13.375L16.0938 19.4688Z" fill="white"/>
</svg>
