<?xml version="1.0" encoding="UTF-8"?><svg id="Layer_1" xmlns="http://www.w3.org/2000/svg" viewBox="0 0 162.56 65.41"><defs><style>.cls-1{fill:#fff;}.cls-2{fill:#bd162c;}.cls-3{fill:#0d1b2a;}.cls-4{fill:none;stroke:#bd162c;stroke-miterlimit:10;stroke-width:10px;}</style></defs><path class="cls-4" d="M84.23,42.82h-26.89L65.38,5h25.78c7.63,0,13.69,6.84,13.28,14.99l-.13,2.48c-.58,11.41-9.4,20.35-20.09,20.35Z"/><polygon class="cls-2" points="66.5 65.41 47.41 65.41 51.16 47.82 70.19 47.82 66.5 65.41"/><path class="cls-4" d="M137.33,42.82h-26.89L118.48,5h25.78c7.63,0,13.69,6.84,13.28,14.99l-.13,2.48c-.58,11.41-9.4,20.35-20.09,20.35Z"/><polygon class="cls-2" points="119.6 65.41 100.51 65.41 104.27 47.82 123.29 47.82 119.6 65.41"/><polygon class="cls-3" points="59.32 9.51 49.01 9.51 51.04 .01 61.31 .02 59.32 9.51"/><polygon class="cls-1" points="49.03 9.51 38.72 9.51 40.74 .01 51.02 .02 49.03 9.51"/><polygon class="cls-3" points="55.3 28.51 44.99 28.51 47.02 19.01 57.29 19.02 55.3 28.51"/><polygon class="cls-1" points="53.27 38.01 42.96 38.01 44.98 28.51 55.26 28.52 53.27 38.01"/><polygon class="cls-3" points="51.33 47.82 41.02 47.82 43.05 38.01 53.32 38.02 51.33 47.82"/><polygon class="cls-3" points="38.86 9.51 28.55 9.51 30.58 .01 40.85 .02 38.86 9.51"/><polygon class="cls-3" points="43 38.01 32.69 38.01 34.71 28.51 44.99 28.52 43 38.01"/><polygon class="cls-3" points="47.02 19.01 36.71 19.01 38.73 9.51 49.01 9.52 47.02 19.01"/><polygon class="cls-1" points="49.03 9.51 38.72 9.51 40.74 .01 51.02 .02 49.03 9.51"/><polygon class="cls-1" points="57.32 19.01 47.01 19.01 49.03 9.51 59.31 9.52 57.32 19.01"/><polygon class="cls-1" points="45.01 28.51 34.7 28.51 36.73 19.01 47.01 19.02 45.01 28.51"/><polygon class="cls-1" points="41.05 47.51 30.74 47.51 32.76 38.01 43.04 38.02 41.05 47.51"/><polygon class="cls-1" points="36.73 19.01 26.41 19.01 28.44 9.51 38.72 9.52 36.73 19.01"/><polygon class="cls-3" points="34.71 28.51 24.4 28.51 26.43 19.01 36.71 19.02 34.71 28.51"/><polygon class="cls-1" points="32.71 38.01 22.4 38.01 24.43 28.51 34.7 28.52 32.71 38.01"/><polygon class="cls-3" points="30.69 47.51 20.38 47.51 22.41 38.01 32.69 38.02 30.69 47.51"/><polygon class="cls-1" points="28.56 9.51 18.25 9.51 20.28 .01 30.56 .02 28.56 9.51"/><polygon class="cls-3" points="26.56 19.01 16.25 19.01 18.27 9.51 28.55 9.52 26.56 19.01"/><polygon class="cls-1" points="24.54 28.51 14.23 28.51 16.26 19.01 26.53 19.02 24.54 28.51"/><polygon class="cls-3" points="22.59 38.01 12.28 38.01 14.31 28.51 24.58 28.52 22.59 38.01"/><polygon class="cls-1" points="20.59 47.51 10.28 47.51 12.31 38.01 22.58 38.02 20.59 47.51"/><polygon class="cls-3" points="18.27 9.51 7.96 9.51 9.99 .01 20.26 .02 18.27 9.51"/><polygon class="cls-1" points="16.26 19.01 5.95 19.01 7.98 9.51 18.25 9.52 16.26 19.01"/><polygon class="cls-3" points="14.25 28.51 3.94 28.51 5.97 19.01 16.25 19.02 14.25 28.51"/><polygon class="cls-1" points="12.24 38.01 1.93 38.01 3.95 28.51 14.23 28.52 12.24 38.01"/><polygon class="cls-3" points="10.31 47.51 0 47.51 2.03 38.01 12.3 38.02 10.31 47.51"/></svg>