<svg width="576" height="89" viewBox="0 0 576 89" fill="none" xmlns="http://www.w3.org/2000/svg">
<path d="M207.595 8.33805C208.406 3.52444 212.574 0 217.456 0H564.174C570.36 0 575.063 5.56122 574.035 11.662L562.405 80.6619C561.594 85.4756 557.426 89 552.544 89H205.826C199.64 89 194.937 83.4388 195.965 77.338L207.595 8.33805Z" fill="#C00000"/>
<path d="M4.275 69V20.7H26.925C30.725 20.7 33.825 21.425 36.225 22.875C38.675 24.325 40.5 26.3 41.7 28.8C42.9 31.3 43.5 34.15 43.5 37.35C43.5 40.6 42.8 43.475 41.4 45.975C40.05 48.475 38.1 50.425 35.55 51.825C33.05 53.175 30.075 53.85 26.625 53.85H14.4V69H4.275ZM14.4 45.825H24.525C27.425 45.825 29.6 45.075 31.05 43.575C32.55 42.025 33.3 39.95 33.3 37.35C33.3 34.55 32.6 32.425 31.2 30.975C29.8 29.475 27.7 28.725 24.9 28.725H14.4V45.825ZM71.0742 69.75C55.4242 69.75 47.5992 61.525 47.5992 45.075C47.5992 36.225 49.5742 29.825 53.5242 25.875C57.4742 21.925 63.3242 19.95 71.0742 19.95C78.8242 19.95 84.6742 21.925 88.6242 25.875C92.5742 29.825 94.5492 36.225 94.5492 45.075C94.5492 61.525 86.7242 69.75 71.0742 69.75ZM71.0742 61.125C75.6242 61.125 78.9492 59.825 81.0492 57.225C83.1992 54.575 84.2742 50.525 84.2742 45.075C84.2742 39.025 83.1992 34.775 81.0492 32.325C78.9492 29.825 75.6242 28.575 71.0742 28.575C66.5242 28.575 63.1742 29.825 61.0242 32.325C58.9242 34.775 57.8742 39.025 57.8742 45.075C57.8742 50.525 58.9242 54.575 61.0242 57.225C63.1742 59.825 66.5242 61.125 71.0742 61.125ZM101.614 69V20.7H111.739V61.2H135.514V69H101.614ZM141.091 69V20.7H175.741V28.575H151.216V40.95H172.966V48.75H151.216V61.2H175.741V69H141.091Z" fill="#222222"/>
<path d="M228.275 71V22.7H250.925C254.725 22.7 257.825 23.425 260.225 24.875C262.675 26.325 264.5 28.3 265.7 30.8C266.9 33.3 267.5 36.15 267.5 39.35C267.5 42.6 266.8 45.475 265.4 47.975C264.05 50.475 262.1 52.425 259.55 53.825C257.05 55.175 254.075 55.85 250.625 55.85H238.4V71H228.275ZM238.4 47.825H248.525C251.425 47.825 253.6 47.075 255.05 45.575C256.55 44.025 257.3 41.95 257.3 39.35C257.3 36.55 256.6 34.425 255.2 32.975C253.8 31.475 251.7 30.725 248.9 30.725H238.4V47.825ZM295.074 71.75C279.424 71.75 271.599 63.525 271.599 47.075C271.599 38.225 273.574 31.825 277.524 27.875C281.474 23.925 287.324 21.95 295.074 21.95C302.824 21.95 308.674 23.925 312.624 27.875C316.574 31.825 318.549 38.225 318.549 47.075C318.549 63.525 310.724 71.75 295.074 71.75ZM295.074 63.125C299.624 63.125 302.949 61.825 305.049 59.225C307.199 56.575 308.274 52.525 308.274 47.075C308.274 41.025 307.199 36.775 305.049 34.325C302.949 31.825 299.624 30.575 295.074 30.575C290.524 30.575 287.174 31.825 285.024 34.325C282.924 36.775 281.874 41.025 281.874 47.075C281.874 52.525 282.924 56.575 285.024 59.225C287.174 61.825 290.524 63.125 295.074 63.125ZM340.614 71.75C337.514 71.75 334.614 71.525 331.914 71.075C329.264 70.625 326.964 69.975 325.014 69.125V60.2C327.214 61.1 329.589 61.825 332.139 62.375C334.689 62.925 337.189 63.2 339.639 63.2C343.139 63.2 345.714 62.875 347.364 62.225C349.014 61.575 349.839 60.1 349.839 57.8C349.839 56.35 349.489 55.2 348.789 54.35C348.089 53.5 346.864 52.75 345.114 52.1C343.414 51.4 340.989 50.625 337.839 49.775C332.789 48.375 329.239 46.625 327.189 44.525C325.139 42.425 324.114 39.525 324.114 35.825C324.114 31.375 325.739 27.95 328.989 25.55C332.239 23.15 336.964 21.95 343.164 21.95C346.064 21.95 348.764 22.15 351.264 22.55C353.764 22.95 355.789 23.425 357.339 23.975V32.9C353.239 31.35 348.964 30.575 344.514 30.575C341.364 30.575 338.889 30.925 337.089 31.625C335.289 32.275 334.389 33.675 334.389 35.825C334.389 37.075 334.714 38.075 335.364 38.825C336.014 39.575 337.114 40.25 338.664 40.85C340.264 41.45 342.489 42.125 345.339 42.875C349.289 43.925 352.339 45.175 354.489 46.625C356.639 48.075 358.114 49.725 358.914 51.575C359.764 53.425 360.189 55.5 360.189 57.8C360.189 62 358.589 65.375 355.389 67.925C352.189 70.475 347.264 71.75 340.614 71.75ZM367.215 71V22.7H377.34V71H367.215ZM397.742 71V30.5H382.892V22.7H422.642V30.5H407.867V71H397.742ZM428.226 71V22.7H438.351V71H428.226ZM468.878 71.75C453.228 71.75 445.403 63.525 445.403 47.075C445.403 38.225 447.378 31.825 451.328 27.875C455.278 23.925 461.128 21.95 468.878 21.95C476.628 21.95 482.478 23.925 486.428 27.875C490.378 31.825 492.353 38.225 492.353 47.075C492.353 63.525 484.528 71.75 468.878 71.75ZM468.878 63.125C473.428 63.125 476.753 61.825 478.853 59.225C481.003 56.575 482.078 52.525 482.078 47.075C482.078 41.025 481.003 36.775 478.853 34.325C476.753 31.825 473.428 30.575 468.878 30.575C464.328 30.575 460.978 31.825 458.828 34.325C456.728 36.775 455.678 41.025 455.678 47.075C455.678 52.525 456.728 56.575 458.828 59.225C460.978 61.825 464.328 63.125 468.878 63.125ZM499.418 71V22.7H508.193L531.068 54.875V22.7H541.193V71H532.418L509.543 38.825V71H499.418Z" fill="white"/>
</svg>
